<svg width="32" height="32" viewBox="0 0 32 32" fill="none" xmlns="http://www.w3.org/2000/svg">
<path fill-rule="evenodd" clip-rule="evenodd" d="M4.4429 28.801L1.875 0H30.0921L27.5215 28.7963L15.9665 32L4.4429 28.801Z" fill="#0071BC"/>
<path fill-rule="evenodd" clip-rule="evenodd" d="M16.0073 29.5497L25.3327 26.9843L27.5177 2.39853H16.0073V29.5497Z" fill="#29ABE2"/>
<path fill-rule="evenodd" clip-rule="evenodd" d="M7.75293 12.9799L8.06226 16.507L16.0073 12.9799V9.44702L7.75293 12.9799Z" fill="#B3B3B3"/>
<path fill-rule="evenodd" clip-rule="evenodd" d="M24.8067 5.67587L16.0073 9.44702V12.9799L24.5033 9.20302L24.8067 5.67587Z" fill="#E6E6E6"/>
<path fill-rule="evenodd" clip-rule="evenodd" d="M16.0073 22.2086L15.98 22.2127L12.0399 21.1545L11.7824 18.3411H8.23633L8.73119 23.8837L15.9793 25.8906L16.0073 25.8839V22.2086Z" fill="#E6E6E6"/>
<path fill-rule="evenodd" clip-rule="evenodd" d="M16.0073 12.9799V16.507H20.3212L19.9291 21.1185L16.0073 22.2116V25.8867L23.2313 23.8798L24.1826 12.9799H16.0073Z" fill="white"/>
<path fill-rule="evenodd" clip-rule="evenodd" d="M16.0073 12.9799H7.75293L8.06226 16.507H16.0073V12.9799Z" fill="#E6E6E6"/>
<path fill-rule="evenodd" clip-rule="evenodd" d="M16.0075 9.20302V5.67587H15.9716H7.12598L7.43898 9.20302H16.0075Z" fill="#E6E6E6"/>
<path fill-rule="evenodd" clip-rule="evenodd" d="M16.0073 5.67587V9.15878V9.20302H24.5033L24.8067 5.67587H16.0073Z" fill="white"/>
</svg>
