<svg width="32" height="32" viewBox="0 0 32 32" fill="none" xmlns="http://www.w3.org/2000/svg">
<g clip-path="url(#clip0_90_89)">
<path d="M10.7083 32C13.6523 32 16.0417 29.6107 16.0417 26.6667V21.3333H10.7083C7.76433 21.3333 5.375 23.7227 5.375 26.6667C5.375 29.6107 7.76433 32 10.7083 32Z" fill="#0ACF83"/>
<path d="M5.375 16C5.375 13.056 7.76433 10.6667 10.7083 10.6667H16.0417V21.3333H10.7083C7.76433 21.3333 5.375 18.944 5.375 16Z" fill="#A259FF"/>
<path d="M5.375 5.33333C5.375 2.38933 7.76433 0 10.7083 0H16.0417V10.6667H10.7083C7.76433 10.6667 5.375 8.27733 5.375 5.33333Z" fill="#F24E1E"/>
<path d="M16.0415 0H21.3748C24.3188 0 26.7082 2.38933 26.7082 5.33333C26.7082 8.27733 24.3188 10.6667 21.3748 10.6667H16.0415V0Z" fill="#FF7262"/>
<path d="M26.7082 16C26.7082 18.944 24.3188 21.3333 21.3748 21.3333C18.4308 21.3333 16.0415 18.944 16.0415 16C16.0415 13.056 18.4308 10.6667 21.3748 10.6667C24.3188 10.6667 26.7082 13.056 26.7082 16Z" fill="#1ABCFE"/>
</g>
<defs>
<clipPath id="clip0_90_89">
<rect width="32" height="32" fill="white"/>
</clipPath>
</defs>
</svg>
