<svg width="32" height="32" viewBox="0 0 32 32" fill="none" xmlns="http://www.w3.org/2000/svg">
<path fill-rule="evenodd" clip-rule="evenodd" d="M4.44283 28.8012L1.875 0H30.091L27.5204 28.7967L15.9657 32L4.44283 28.8012Z" fill="#E44D26"/>
<path fill-rule="evenodd" clip-rule="evenodd" d="M15.9829 29.5515L25.3197 26.963L27.5164 2.35492H15.9829V29.5515Z" fill="#F16529"/>
<path d="M11.3087 13.0369H15.9829V16.5692H8.07822L7.12549 5.8873H15.9829V9.41968H10.9859L11.3087 13.0369Z" fill="#EBEBEB"/>
<path d="M15.9675 22.2149L15.9829 22.2107V25.8859L15.9667 25.8904L8.73093 23.8817L8.23605 18.3354H11.782L12.0335 21.1526L15.9675 22.2149Z" fill="#EBEBEB"/>
<path d="M15.9707 5.8873H24.8193L24.503 9.41968H15.9707V5.8873Z" fill="white"/>
<path d="M15.9707 16.5692V13.0369H24.1816L24.0954 13.9854L23.2122 23.8817L15.9707 25.8887V22.2137L19.9104 21.1503L20.3204 16.5692H15.9707Z" fill="white"/>
</svg>
