<svg width="32" height="32" viewBox="0 0 32 32" fill="none" xmlns="http://www.w3.org/2000/svg">
<g clip-path="url(#clip0_90_99)">
<path fill-rule="evenodd" clip-rule="evenodd" d="M0 0H32V32H0V0Z" fill="#F7DF1E"/>
<path fill-rule="evenodd" clip-rule="evenodd" d="M8.41411 26.7415L10.863 25.2595C11.3354 26.0972 11.7652 26.8059 12.796 26.8059C13.7842 26.8059 14.4072 26.4194 14.4072 24.9159V14.6911H17.4143V24.9584C17.4143 28.073 15.5886 29.4907 12.9249 29.4907C10.5193 29.4907 9.12289 28.2448 8.41406 26.7413" fill="black"/>
<path fill-rule="evenodd" clip-rule="evenodd" d="M19.0479 26.4193L21.4964 25.0016C22.141 26.0543 22.9787 26.8275 24.4608 26.8275C25.7068 26.8275 26.5014 26.2045 26.5014 25.3453C26.5014 24.3142 25.6852 23.949 24.3104 23.3478L23.5588 23.0253C21.3891 22.1018 19.9499 20.9419 19.9499 18.4931C19.9499 16.2377 21.6683 14.5192 24.3535 14.5192C26.2652 14.5192 27.64 15.1851 28.6279 16.9251L26.2866 18.4286C25.771 17.505 25.2127 17.1399 24.3535 17.1399C23.4728 17.1399 22.9143 17.6984 22.9143 18.4286C22.9143 19.3308 23.4728 19.6961 24.7615 20.2546L25.5132 20.5768C28.0694 21.6723 29.5087 22.7892 29.5087 25.3023C29.5087 28.009 27.3821 29.491 24.5253 29.491C21.7329 29.491 19.9285 28.1593 19.0479 26.4193" fill="black"/>
</g>
<defs>
<clipPath id="clip0_90_99">
<rect width="32" height="32" fill="white"/>
</clipPath>
</defs>
</svg>
